<?xml version="1.0" encoding="UTF-8" standalone="no"?><!-- Generator: Gravit.io --><svg xmlns="http://www.w3.org/2000/svg" xmlns:xlink="http://www.w3.org/1999/xlink" style="isolation:isolate" viewBox="0 0 1400 720" width="1400pt" height="720pt"><defs><clipPath id="_clipPath_V93oBnQ7p1qmZtqlitiLDbMthkvICdTK"><rect width="1400" height="720"/></clipPath></defs><g clip-path="url(#_clipPath_V93oBnQ7p1qmZtqlitiLDbMthkvICdTK)"><rect x="0" y="177.115" width="1400" height="350" transform="matrix(1,0,0,1,0,0)" fill="rgb(255,255,255)"/><ellipse vector-effect="non-scaling-stroke" cx="70.00000000000021" cy="181.48958333333348" rx="70" ry="74.08333333333331" fill="rgb(255,255,255)"/><ellipse vector-effect="non-scaling-stroke" cx="257.2500000000002" cy="172.1562500000001" rx="147.58333333333343" ry="74.08333333333331" fill="rgb(255,255,255)"/><ellipse vector-effect="non-scaling-stroke" cx="469.58333333333337" cy="214.1562500000001" rx="147.5833333333334" ry="74.08333333333331" fill="rgb(255,255,255)"/><ellipse vector-effect="non-scaling-stroke" cx="679.5833333333333" cy="172.1562500000001" rx="147.5833333333336" ry="74.08333333333331" fill="rgb(255,255,255)"/><ellipse vector-effect="non-scaling-stroke" cx="882.8749999999998" cy="140.0729166666668" rx="115.79166666666697" ry="74.08333333333331" fill="rgb(255,255,255)"/><ellipse vector-effect="non-scaling-stroke" cx="1067.4999999999995" cy="214.1562500000001" rx="136.5" ry="74.08333333333331" fill="rgb(255,255,255)"/><ellipse vector-effect="non-scaling-stroke" cx="1291.4999999999995" cy="191.40625000000006" rx="108.5" ry="74.0833333333333" fill="rgb(255,255,255)"/><ellipse vector-effect="non-scaling-stroke" cx="70.00000000000021" cy="515.4479166666667" rx="70" ry="74.08333333333329" fill="rgb(255,255,255)"/><ellipse vector-effect="non-scaling-stroke" cx="257.2500000000002" cy="506.1145833333333" rx="147.58333333333343" ry="74.08333333333331" fill="rgb(255,255,255)"/><ellipse vector-effect="non-scaling-stroke" cx="469.5833333333333" cy="548.1145833333335" rx="147.58333333333354" ry="74.08333333333329" fill="rgb(255,255,255)"/><ellipse vector-effect="non-scaling-stroke" cx="658.5833333333335" cy="506.11458333333354" rx="126.58333333333337" ry="74.08333333333331" fill="rgb(255,255,255)"/><ellipse vector-effect="non-scaling-stroke" cx="870.3333333333328" cy="474.0312499999998" rx="103.25" ry="74.08333333333329" fill="rgb(255,255,255)"/><ellipse vector-effect="non-scaling-stroke" cx="1037.1666666666663" cy="548.1145833333336" rx="128.33333333333331" ry="74.08333333333329" fill="rgb(255,255,255)"/><ellipse vector-effect="non-scaling-stroke" cx="1194.0833333333326" cy="580.1979166666666" rx="89.25" ry="74.08333333333329" fill="rgb(255,255,255)"/><ellipse vector-effect="non-scaling-stroke" cx="1310.75" cy="535.8645833333333" rx="89.25" ry="74.08333333333329" fill="rgb(255,255,255)"/></g></svg>