<?xml version="1.0" encoding="UTF-8" standalone="no"?><!-- Generator: Gravit.io --><svg xmlns="http://www.w3.org/2000/svg" xmlns:xlink="http://www.w3.org/1999/xlink" style="isolation:isolate" viewBox="0 0 400 400" width="400pt" height="400pt"><defs><clipPath id="_clipPath_xlRMFmHuKB43Si3RmdnUaLFToFeM7Obf"><rect width="400" height="400"/></clipPath></defs><g clip-path="url(#_clipPath_xlRMFmHuKB43Si3RmdnUaLFToFeM7Obf)"><path d=" M 369.188 114.863 C 365.056 99.592 353.127 87.664 337.857 83.532 C 310.386 76.04 199.821 76.04 199.821 76.04 C 199.821 76.04 89.256 76.267 61.785 83.759 C 46.515 87.891 34.586 99.819 30.454 115.09 C 22.145 163.902 18.921 238.278 30.681 285.137 C 34.813 300.408 46.742 312.336 62.012 316.468 C 89.483 323.96 200.048 323.96 200.048 323.96 C 200.048 323.96 310.613 323.96 338.084 316.468 C 353.354 312.336 365.283 300.408 369.415 285.137 C 378.178 236.257 380.88 161.927 369.188 114.863 Z  M 164.631 253.126 L 256.352 200 L 164.631 146.874 L 164.631 253.126 Z " fill-rule="evenodd" fill="rgb(255,0,0)"/></g></svg>